<?xml version="1.0" encoding="utf-8"?>
<!-- Generator: Adobe Illustrator 25.3.1, SVG Export Plug-In . SVG Version: 6.00 Build 0)  -->
<svg version="1.1" id="Camada_1" xmlns="http://www.w3.org/2000/svg" xmlns:xlink="http://www.w3.org/1999/xlink" x="0px" y="0px"
	 viewBox="0 0 302 60" style="enable-background:new 0 0 302 60;" xml:space="preserve">
<style type="text/css">
	.st0{fill:#FFFFFF;}
</style>
<g>
	<g id="Camada_2_1_">
		<g id="Camada_1-2">
			<path class="st0" d="M11.7,0h36.5C54.7,0,60,5.3,60,11.7v36.5C60,54.7,54.7,60,48.3,60H11.7C5.3,60,0,54.7,0,48.3V11.7
				C0,5.3,5.3,0,11.7,0z"/>
			<path d="M9.1,30c0-3.1,0-6.3,0-9.5c-0.1-3.7,2.7-6.8,6.4-6.9c1.3,0,2.6,0.3,3.7,1c3.3,1.9,6.6,3.8,9.9,5.7c0.5,0.4,1.2,0.4,1.7,0
				c3.3-1.9,6.6-3.8,9.9-5.6c3.1-2,7.2-1.1,9.2,2.1c0.7,1.2,1.1,2.6,1,3.9c0,6.2,0,12.5,0,18.7c0,5.7-5.4,8.8-10.3,6
				c-3.3-1.9-6.6-3.8-9.9-5.7c-0.4-0.3-1-0.3-1.5,0c-3.3,1.9-6.6,3.8-9.9,5.7c-3.1,2-7.2,1.1-9.2-2c-0.8-1.2-1.1-2.6-1-4
				C9.1,36.3,9.1,33.1,9.1,30L9.1,30z M47.9,37.6L47.9,37.6c0-0.8,0-1.6,0-2.4c-0.1-0.4-0.3-0.8-0.6-1c-0.9-0.6-1.8-1.1-2.8-1.6
				c-8.9-5.1-17.8-10.2-26.8-15.2c-1.6-1.1-3.9-0.7-5,0.9c-0.5,0.7-0.7,1.5-0.6,2.3c0,1.4,0,2.7,0,4.1c-0.1,0.6,0.2,1.1,0.8,1.3
				C17,28.3,21,30.5,25,32.8c5.8,3.3,11.6,6.6,17.4,9.9c1.7,1.1,3.9,0.6,4.9-1.1c0.4-0.6,0.6-1.4,0.6-2.1
				C47.9,38.9,47.8,38.2,47.9,37.6L47.9,37.6z M12.3,29.1c-0.1,0.1-0.1,0.2-0.1,0.3c0,3.5-0.1,7.1,0,10.6c0.1,2.2,2.6,4,4.6,3
				c3.4-1.7,6.7-3.6,10.1-5.6L12.3,29.1z M47.8,31c0-0.4,0-0.6,0-0.8c0-3.2,0-6.4,0-9.6c0.1-2-1.3-3.7-3.3-3.8
				c-0.8-0.1-1.6,0.2-2.3,0.6c-2.8,1.6-5.7,3.1-8.4,4.7c-0.2,0.1-0.4,0.3-0.6,0.5L47.8,31z"/>
		</g>
	</g>
	<g>
		<path d="M82.4,17.1c0.5,0.9,1,2,1.7,3.3c0.6,1.3,1.3,2.7,2,4.2c0.7,1.5,1.4,3.1,2,4.7s1.3,3.1,1.9,4.5c0.6-1.4,1.2-2.9,1.9-4.5
			c0.7-1.6,1.4-3.1,2-4.7c0.7-1.5,1.4-2.9,2-4.2c0.6-1.3,1.2-2.4,1.7-3.3h5.7c0.3,1.9,0.5,3.9,0.7,6.2c0.2,2.3,0.4,4.7,0.6,7.2
			c0.2,2.5,0.3,5,0.5,7.5c0.1,2.5,0.3,4.9,0.4,7.1h-6.1c-0.1-2.7-0.2-5.7-0.3-8.9c-0.1-3.2-0.3-6.4-0.6-9.7c-0.5,1.1-1,2.4-1.6,3.8
			c-0.6,1.4-1.2,2.7-1.8,4.1c-0.6,1.4-1.1,2.7-1.7,3.9c-0.5,1.3-1,2.3-1.4,3.2h-4.4c-0.4-0.9-0.8-2-1.4-3.2
			c-0.5-1.3-1.1-2.6-1.7-3.9c-0.6-1.4-1.2-2.7-1.8-4.1c-0.6-1.4-1.1-2.6-1.6-3.8c-0.3,3.3-0.5,6.5-0.6,9.7c-0.1,3.2-0.2,6.2-0.3,8.9
			h-6.1c0.1-2.2,0.2-4.6,0.4-7.1c0.1-2.5,0.3-5,0.5-7.5c0.2-2.5,0.4-4.9,0.6-7.2c0.2-2.3,0.5-4.4,0.7-6.2H82.4z"/>
		<path d="M118.5,23.3c1.8,0,3.3,0.2,4.4,0.6c1.2,0.4,2.1,1,2.9,1.7c0.7,0.8,1.2,1.7,1.5,2.8c0.3,1.1,0.4,2.3,0.4,3.6v12.5
			c-0.9,0.2-2.1,0.4-3.6,0.7c-1.5,0.3-3.4,0.4-5.6,0.4c-1.4,0-2.6-0.1-3.7-0.4c-1.1-0.2-2.1-0.6-2.9-1.2c-0.8-0.6-1.4-1.3-1.9-2.2
			c-0.4-0.9-0.6-2-0.6-3.3c0-1.2,0.3-2.3,0.7-3.2c0.5-0.9,1.2-1.6,2-2.1c0.8-0.5,1.8-0.9,2.9-1.1c1.1-0.2,2.2-0.3,3.4-0.3
			c0.8,0,1.5,0,2.1,0.1c0.6,0.1,1.1,0.2,1.5,0.3v-0.6c0-1-0.3-1.8-0.9-2.5c-0.6-0.6-1.7-0.9-3.2-0.9c-1,0-2,0.1-3,0.2
			c-1,0.1-1.9,0.4-2.6,0.6l-0.8-4.9c0.4-0.1,0.8-0.2,1.3-0.3c0.5-0.1,1.1-0.2,1.7-0.3c0.6-0.1,1.3-0.2,2-0.2
			C117.1,23.4,117.8,23.3,118.5,23.3z M119,40.9c0.6,0,1.2,0,1.7,0c0.5,0,1-0.1,1.3-0.1v-4.6c-0.2-0.1-0.6-0.1-1.1-0.2
			c-0.5-0.1-0.9-0.1-1.3-0.1c-0.6,0-1.1,0-1.6,0.1c-0.5,0.1-0.9,0.2-1.3,0.4c-0.4,0.2-0.7,0.4-0.9,0.8c-0.2,0.3-0.3,0.7-0.3,1.2
			c0,0.9,0.3,1.6,0.9,2C117,40.8,117.9,40.9,119,40.9z"/>
		<path d="M139.8,17.7c0,1.1-0.4,2-1.1,2.6c-0.7,0.6-1.6,0.9-2.5,0.9c-1,0-1.8-0.3-2.5-0.9c-0.7-0.6-1.1-1.5-1.1-2.6
			c0-1.1,0.4-2,1.1-2.6c0.7-0.6,1.6-0.9,2.5-0.9c1,0,1.8,0.3,2.5,0.9C139.4,15.8,139.8,16.6,139.8,17.7z M139.2,45.2h-6V23.9h6V45.2
			z"/>
		<path d="M153.4,45.6c-1.8,0-3.2-0.2-4.3-0.6c-1.1-0.4-2-0.8-2.6-1.5c-0.6-0.6-1.1-1.4-1.3-2.3c-0.2-0.9-0.3-1.9-0.3-3.1V14.7l6-1
			v23.2c0,0.5,0,1,0.1,1.5c0.1,0.4,0.2,0.8,0.5,1.1c0.2,0.3,0.6,0.5,1,0.7s1,0.3,1.7,0.4L153.4,45.6z"/>
		<path d="M165.7,40.3c0.9,0,1.6-0.1,2.2-0.2c0.6-0.1,1-0.3,1.4-0.6c0.3-0.3,0.6-0.6,0.7-0.9c0.1-0.3,0.2-0.7,0.2-1.2
			c0-0.9-0.4-1.7-1.3-2.3c-0.9-0.6-2.3-1.3-4.4-2c-0.9-0.3-1.8-0.7-2.8-1.1c-0.9-0.4-1.7-0.9-2.5-1.6c-0.7-0.6-1.3-1.4-1.8-2.3
			c-0.5-0.9-0.7-2-0.7-3.3c0-1.3,0.2-2.5,0.7-3.5c0.5-1,1.2-1.9,2.1-2.6c0.9-0.7,2-1.3,3.2-1.7c1.3-0.4,2.7-0.6,4.3-0.6
			c1.9,0,3.5,0.2,4.9,0.6c1.4,0.4,2.5,0.8,3.4,1.3l-1.8,5c-0.8-0.4-1.7-0.8-2.6-1.1c-1-0.3-2.1-0.5-3.5-0.5c-1.5,0-2.6,0.2-3.3,0.6
			c-0.7,0.4-1,1.1-1,1.9c0,0.5,0.1,0.9,0.4,1.3c0.2,0.4,0.6,0.7,1,0.9c0.4,0.3,1,0.5,1.5,0.8c0.6,0.2,1.2,0.5,1.9,0.7
			c1.5,0.5,2.7,1.1,3.8,1.6c1.1,0.5,2,1.1,2.7,1.8c0.7,0.7,1.2,1.5,1.6,2.5c0.4,0.9,0.5,2.1,0.5,3.4c0,2.6-0.9,4.6-2.7,6.1
			c-1.8,1.4-4.6,2.2-8.3,2.2c-1.2,0-2.4-0.1-3.4-0.2c-1-0.1-1.9-0.3-2.6-0.5c-0.8-0.2-1.4-0.4-2-0.7c-0.6-0.2-1-0.5-1.4-0.7l1.8-5
			c0.8,0.5,1.9,0.9,3.1,1.2C162.4,40.2,163.9,40.3,165.7,40.3z"/>
		<path d="M181.2,24.6c1-0.3,2.3-0.6,4-0.8c1.6-0.3,3.3-0.4,5.1-0.4c1.8,0,3.3,0.2,4.5,0.7c1.2,0.5,2.1,1.1,2.9,2s1.2,1.9,1.5,3.1
			c0.3,1.2,0.4,2.5,0.4,4v12h-6V33.9c0-1.9-0.3-3.3-0.8-4.1c-0.5-0.8-1.5-1.2-2.9-1.2c-0.4,0-0.9,0-1.4,0.1c-0.5,0-0.9,0.1-1.3,0.1
			v16.4h-6V24.6z"/>
		<path d="M211.6,17.7c0,1.1-0.4,2-1.1,2.6c-0.7,0.6-1.6,0.9-2.5,0.9c-1,0-1.8-0.3-2.5-0.9c-0.7-0.6-1.1-1.5-1.1-2.6
			c0-1.1,0.4-2,1.1-2.6c0.7-0.6,1.6-0.9,2.5-0.9c1,0,1.8,0.3,2.5,0.9C211.3,15.8,211.6,16.6,211.6,17.7z M211,45.2h-6V23.9h6V45.2z"
			/>
		<path d="M236.5,34.5c0,1.6-0.2,3.1-0.6,4.5c-0.4,1.3-1,2.5-1.8,3.5s-1.8,1.7-2.9,2.3c-1.2,0.5-2.5,0.8-4,0.8
			c-0.8,0-1.6-0.1-2.3-0.2c-0.7-0.2-1.4-0.4-2.1-0.7v8h-6v-28c0.5-0.2,1.2-0.3,1.9-0.5s1.4-0.3,2.2-0.4c0.8-0.1,1.6-0.2,2.3-0.3
			c0.8-0.1,1.6-0.1,2.3-0.1c1.8,0,3.3,0.3,4.7,0.8c1.4,0.5,2.5,1.3,3.5,2.2c0.9,1,1.7,2.1,2.2,3.5C236.2,31.3,236.5,32.8,236.5,34.5
			z M230.3,34.7c0-1.9-0.4-3.4-1.3-4.5c-0.8-1.1-2.1-1.7-3.7-1.7c-0.5,0-1,0-1.5,0.1c-0.5,0-0.8,0.1-1.1,0.1v10.9
			c0.4,0.2,0.9,0.4,1.5,0.6c0.6,0.2,1.2,0.2,1.8,0.2C228.9,40.5,230.3,38.5,230.3,34.7z"/>
		<path d="M260.9,34.5c0,1.6-0.2,3.1-0.6,4.5c-0.4,1.3-1,2.5-1.8,3.5s-1.8,1.7-2.9,2.3c-1.2,0.5-2.5,0.8-4,0.8
			c-0.8,0-1.6-0.1-2.3-0.2c-0.7-0.2-1.4-0.4-2.1-0.7v8h-6v-28c0.5-0.2,1.2-0.3,1.9-0.5s1.4-0.3,2.2-0.4c0.8-0.1,1.6-0.2,2.3-0.3
			c0.8-0.1,1.6-0.1,2.3-0.1c1.8,0,3.3,0.3,4.7,0.8c1.4,0.5,2.5,1.3,3.5,2.2c0.9,1,1.7,2.1,2.2,3.5C260.7,31.3,260.9,32.8,260.9,34.5
			z M254.8,34.7c0-1.9-0.4-3.4-1.3-4.5c-0.8-1.1-2.1-1.7-3.7-1.7c-0.5,0-1,0-1.5,0.1c-0.5,0-0.8,0.1-1.1,0.1v10.9
			c0.4,0.2,0.9,0.4,1.5,0.6c0.6,0.2,1.2,0.2,1.8,0.2C253.3,40.5,254.8,38.5,254.8,34.7z"/>
		<path d="M264.6,34.7c0-1.9,0.3-3.5,0.9-5c0.6-1.4,1.3-2.6,2.3-3.5c0.9-0.9,2-1.7,3.3-2.1c1.2-0.5,2.5-0.7,3.8-0.7
			c3,0,5.4,0.9,7.2,2.8c1.8,1.8,2.6,4.6,2.6,8.1c0,0.4,0,0.7,0,1.2c0,0.4-0.1,0.8-0.1,1.1h-13.7c0.1,1.2,0.7,2.2,1.7,3
			c1,0.7,2.4,1.1,4.1,1.1c1.1,0,2.2-0.1,3.3-0.3c1.1-0.2,1.9-0.5,2.6-0.7l0.8,4.9c-0.3,0.2-0.8,0.3-1.3,0.5
			c-0.5,0.2-1.1,0.3-1.8,0.4c-0.7,0.1-1.4,0.2-2.1,0.3c-0.8,0.1-1.5,0.1-2.3,0.1c-1.9,0-3.6-0.3-5-0.8c-1.4-0.6-2.6-1.3-3.5-2.3
			c-0.9-1-1.6-2.1-2.1-3.5C264.8,37.7,264.6,36.2,264.6,34.7z M278.7,32.4c0-0.5-0.1-1-0.3-1.5s-0.4-0.9-0.7-1.3
			c-0.3-0.4-0.7-0.7-1.2-0.9c-0.5-0.2-1.1-0.4-1.8-0.4c-0.7,0-1.3,0.1-1.7,0.3c-0.5,0.2-0.9,0.5-1.2,0.9c-0.3,0.4-0.6,0.8-0.7,1.3
			c-0.2,0.5-0.3,1-0.4,1.5H278.7z"/>
		<path d="M289,18.6l6-1v6.3h7.2v5H295v7.5c0,1.3,0.2,2.3,0.7,3c0.4,0.8,1.3,1.1,2.7,1.1c0.6,0,1.3-0.1,2-0.2
			c0.7-0.1,1.3-0.3,1.9-0.5l0.8,4.7c-0.7,0.3-1.5,0.6-2.4,0.8c-0.9,0.2-2,0.3-3.3,0.3c-1.6,0-3-0.2-4.1-0.7
			c-1.1-0.4-1.9-1.1-2.6-1.9c-0.6-0.8-1.1-1.8-1.4-2.9c-0.3-1.1-0.4-2.4-0.4-3.8V18.6z"/>
	</g>
</g>
</svg>
