<?xml version="1.0" encoding="utf-8"?>
<!-- Generator: Adobe Illustrator 25.3.1, SVG Export Plug-In . SVG Version: 6.00 Build 0)  -->
<svg version="1.1" id="Camada_1" xmlns="http://www.w3.org/2000/svg" xmlns:xlink="http://www.w3.org/1999/xlink" x="0px" y="0px"
	 viewBox="0 0 60 60" style="enable-background:new 0 0 60 60;" xml:space="preserve">
<style type="text/css">
	.st0{fill:#FFFFFF;}
</style>
<g id="Camada_2_1_">
	<g id="Camada_1-2">
		<path class="st0" d="M11.7,0h36.5C54.7,0,60,5.3,60,11.7v36.5C60,54.7,54.7,60,48.3,60H11.7C5.3,60,0,54.7,0,48.3V11.7
			C0,5.3,5.3,0,11.7,0z"/>
		<path d="M9.1,30c0-3.1,0-6.3,0-9.5c-0.1-3.7,2.7-6.8,6.4-6.9c1.3,0,2.6,0.3,3.7,1c3.3,1.9,6.6,3.8,9.9,5.7c0.5,0.4,1.2,0.4,1.7,0
			c3.3-1.9,6.6-3.8,9.9-5.6c3.1-2,7.2-1.1,9.2,2.1c0.7,1.2,1.1,2.6,1,3.9c0,6.2,0,12.5,0,18.7c0,5.7-5.4,8.8-10.3,6
			c-3.3-1.9-6.6-3.8-9.9-5.7c-0.4-0.3-1-0.3-1.5,0c-3.3,1.9-6.6,3.8-9.9,5.7c-3.1,2-7.2,1.1-9.2-2c-0.8-1.2-1.1-2.6-1-4
			C9.1,36.3,9.1,33.1,9.1,30L9.1,30z M47.9,37.6L47.9,37.6c0-0.8,0-1.6,0-2.4c-0.1-0.4-0.3-0.8-0.6-1c-0.9-0.6-1.8-1.1-2.8-1.6
			c-8.9-5.1-17.8-10.2-26.8-15.2c-1.6-1.1-3.9-0.7-5,0.9c-0.5,0.7-0.7,1.5-0.6,2.3c0,1.4,0,2.7,0,4.1c-0.1,0.6,0.2,1.1,0.8,1.3
			C17,28.3,21,30.5,25,32.8c5.8,3.3,11.6,6.6,17.4,9.9c1.7,1.1,3.9,0.6,4.9-1.1c0.4-0.6,0.6-1.4,0.6-2.1
			C47.9,38.9,47.8,38.2,47.9,37.6L47.9,37.6z M12.3,29.1c-0.1,0.1-0.1,0.2-0.1,0.3c0,3.5-0.1,7.1,0,10.6c0.1,2.2,2.6,4,4.6,3
			c3.4-1.7,6.7-3.6,10.1-5.6L12.3,29.1z M47.8,31c0-0.4,0-0.6,0-0.8c0-3.2,0-6.4,0-9.6c0.1-2-1.3-3.7-3.3-3.8
			c-0.8-0.1-1.6,0.2-2.3,0.6c-2.8,1.6-5.7,3.1-8.4,4.7c-0.2,0.1-0.4,0.3-0.6,0.5L47.8,31z"/>
	</g>
</g>
</svg>
